<?xml version="1.0" standalone="no"?>
<!DOCTYPE svg PUBLIC "-//W3C//DTD SVG 1.1//EN" "http://www.w3.org/Graphics/SVG/1.1/DTD/svg11.dtd" >
<svg xmlns="http://www.w3.org/2000/svg" xmlns:xlink="http://www.w3.org/1999/xlink" version="1.1">
<metadata></metadata>
<defs>
<font id="truenosemibold_italic" horiz-adv-x="1220" >
<font-face units-per-em="2048" ascent="1638" descent="-410" />
<missing-glyph horiz-adv-x="493" />
<glyph unicode="&#xfb01;" horiz-adv-x="1380" d="M185 844l31 217h148l14 96q26 179 156.5 278t302.5 99q121 0 207 -43l-50 -262q-78 43 -155 43q-59 2 -100 -30t-50 -97l-12 -84h260l-31 -217h-260l-122 -844h-313l122 844h-148zM915 0l159 1102h314l-159 -1102h-314zM1105 1415q11 76 66 126t129 50q75 0 116.5 -50 t30.5 -126q-11 -77 -66.5 -126.5t-130.5 -49.5q-74 0 -115 50t-30 126z" />
<glyph unicode="&#xfb02;" horiz-adv-x="1419" d="M185 844l33 217h146l16 115q24 164 151 264.5t309 99.5q127 -3 205 -41l-46 -264q-54 46 -132 49q-69 1 -119 -43t-61 -115l-10 -65h262l-33 -217h-260l-122 -844h-313l122 844h-148zM942 0l219 1520h315l-219 -1520h-315z" />
<glyph horiz-adv-x="0" />
<glyph horiz-adv-x="682" />
<glyph unicode=" "  horiz-adv-x="493" />
<glyph unicode="&#x09;" horiz-adv-x="493" />
<glyph unicode="&#xa0;" horiz-adv-x="493" />
<glyph unicode="!" horiz-adv-x="491" d="M125 145q10 72 60.5 117t118.5 45q70 0 108.5 -45.5t28.5 -116.5q-10 -70 -62.5 -116.5t-121.5 -46.5q-68 0 -105 46.5t-27 116.5zM238 483l30 578l52 362h299l-52 -362l-137 -578h-192z" />
<glyph unicode="&#x22;" horiz-adv-x="847" d="M251 889l78 545h238l-78 -545h-238zM616 889l78 545h238l-79 -545h-237z" />
<glyph unicode="#" horiz-adv-x="1499" d="M86 328l57 227h283l82 309h-277l57 228h281l92 342h228l-93 -342h312l92 342h229l-92 -342h278l-55 -228h-284l-82 -309h277l-58 -227h-280l-89 -328h-227l88 328h-311l-88 -328h-230l89 328h-279zM653 555h312l83 309h-311z" />
<glyph unicode="$" horiz-adv-x="1304" d="M72 217l167 264q95 -97 228 -156t249 -59q100 0 161.5 35.5t71.5 101.5q6 43 -15.5 75.5t-62.5 53.5t-95.5 38.5t-115.5 35.5t-121 38.5t-113 53t-91 74.5t-55 106.5t-5 145.5q24 163 149 272t319 140l43 297h246l-42 -289q246 -24 423 -152l-164 -268 q-103 67 -220.5 107t-204.5 40q-84 0 -137.5 -29.5t-61.5 -86.5q-6 -42 15.5 -74t62.5 -53t96 -39.5t115.5 -37t120.5 -40t112.5 -55t90 -76.5t54 -109t4.5 -149q-26 -180 -166 -291t-348 -135l-44 -305h-246l45 309q-137 20 -257.5 76.5t-207.5 140.5z" />
<glyph unicode="%" horiz-adv-x="2062" d="M215 1010q28 199 149.5 314.5t303.5 115.5q183 0 272 -115t60 -315q-29 -201 -151 -318t-305 -117q-181 0 -269.5 117t-59.5 318zM358 0l1243 1434h295l-1239 -1434h-299zM418 1010q-17 -122 22.5 -189t128.5 -67q91 0 151 67.5t77 188.5q17 119 -23.5 186.5t-130.5 67.5 q-89 0 -148.5 -67.5t-76.5 -186.5zM1270 426q29 200 150.5 316t302.5 116q183 0 271.5 -116t59.5 -316q-29 -201 -150.5 -316.5t-304.5 -115.5q-182 0 -270 115.5t-59 316.5zM1472 426q-17 -120 23 -188t129 -68q90 0 150 67.5t77 188.5t-23 188.5t-130 67.5q-89 0 -149 -68 t-77 -188z" />
<glyph unicode="&#x26;" horiz-adv-x="1388" d="M170 399q10 71 41.5 130.5t82 106.5t102.5 81.5t123 70.5q-100 171 -78 322q22 153 143.5 245.5t302.5 92.5q174 0 271.5 -88.5t77.5 -226.5q-8 -58 -35.5 -109t-62.5 -89t-88 -75.5t-99.5 -63t-110.5 -55.5q85 -115 211 -258q81 107 143 240l179 -150 q-72 -135 -172 -258l188 -211l-183 -159l-179 205q-214 -164 -439 -164q-205 0 -324.5 116.5t-93.5 296.5zM434 422q-13 -91 43.5 -149t155.5 -58q121 0 252 96q-151 176 -263 322q-83 -47 -131 -97.5t-57 -113.5zM688 1110q-13 -93 53 -217q111 55 174 109.5t73 127.5 q8 59 -26 95.5t-98 36.5q-70 0 -118 -42.5t-58 -109.5z" />
<glyph unicode="'" horiz-adv-x="483" d="M251 889l78 545h238l-78 -545h-238z" />
<glyph unicode="(" horiz-adv-x="690" d="M225.5 153.5q-33.5 229.5 2.5 479.5q36 251 135.5 479t250.5 408h281q-142 -185 -239.5 -413.5t-132.5 -473.5q-34 -255 -3 -479.5t119 -407.5h-280q-100 178 -133.5 407.5z" />
<glyph unicode=")" horiz-adv-x="724" d="M113 -254q142 183 240 412.5t133 474.5q34 256 2.5 479t-120.5 408h283q100 -180 133 -408.5t-3 -478.5q-36 -252 -135 -480.5t-250 -406.5h-283z" />
<glyph unicode="*" horiz-adv-x="753" d="M197 1038l190 99l-162 96l101 145l159 -104l24 201h160l-31 -201l187 102l59 -143l-192 -96l164 -99l-100 -143l-160 102l-24 -198h-160l33 200l-189 -102z" />
<glyph unicode="+" horiz-adv-x="1036" d="M149 563l30 209h350l50 348h201l-50 -348h350l-30 -209h-350l-50 -346h-201l50 346h-350z" />
<glyph unicode="," horiz-adv-x="475" d="M34 -188l116 206q-56 45 -45 127q10 70 61.5 115t119.5 45q64 0 102.5 -43t27.5 -117q-10 -68 -61 -127l-167 -206h-154z" />
<glyph unicode="-" horiz-adv-x="761" d="M192 522l30 209h528l-30 -209h-528z" />
<glyph unicode="." horiz-adv-x="481" d="M103 145q10 71 61.5 116.5t119.5 45.5q69 0 106.5 -45t27.5 -117q-11 -71 -61.5 -117t-119.5 -46q-68 0 -106 46.5t-28 116.5z" />
<glyph unicode="/" horiz-adv-x="708" d="M-97 -229l931 1892h266l-932 -1892h-265z" />
<glyph unicode="0" horiz-adv-x="1431" d="M194 719q50 351 238.5 538t492.5 187q301 0 435.5 -187.5t84.5 -537.5q-51 -352 -240 -540.5t-490 -188.5q-304 0 -438 188.5t-83 540.5zM525 719q-37 -252 18 -366.5t208 -114.5q152 0 238.5 114.5t123.5 366.5q36 251 -18 364t-206 113q-153 0 -240.5 -113.5 t-123.5 -363.5z" />
<glyph unicode="1" horiz-adv-x="827" d="M186 1161l39 273h594l-207 -1434h-323l167 1161h-270z" />
<glyph unicode="2" d="M88 0l32 221l597 549q78 69 129 139t58 121q10 68 -34.5 106t-133.5 38q-88 0 -198 -48.5t-219 -132.5l-90 242q309 213 594 213q212 0 331 -102t95 -269q-28 -199 -337 -475l-365 -332h635l-39 -270h-1055z" />
<glyph unicode="3" horiz-adv-x="1130" d="M22 154l168 256q139 -166 339 -166q118 0 190 53t84 147q14 96 -42 145.5t-177 49.5h-220l26 180l387 350h-539l38 263h922l-28 -193l-431 -391l68 -8q165 -24 251 -126t63 -265q-30 -206 -195 -334.5t-410 -128.5q-141 0 -273.5 46t-220.5 122z" />
<glyph unicode="4" horiz-adv-x="1273" d="M104 324l33 229l592 881h311l-560 -848h344l45 315h301l-45 -315h198l-37 -262h-199l-47 -324h-301l47 324h-682z" />
<glyph unicode="5" horiz-adv-x="1206" d="M60 162l166 256q71 -83 161 -126.5t187 -43.5q117 0 190.5 55.5t87.5 153.5q13 92 -44.5 142t-175.5 50q-233 0 -388 -10l116 795h918l-39 -271h-621l-36 -252l150 2q241 0 369.5 -120.5t100.5 -313.5q-32 -224 -203 -357.5t-425 -133.5q-136 0 -276 47.5t-238 126.5z " />
<glyph unicode="6" horiz-adv-x="1284" d="M188 694q50 343 256 548.5t502 205.5q116 0 234 -31.5t200 -83.5l-157 -237q-120 92 -294 92q-181 0 -287 -110.5t-129 -305.5q65 80 162.5 124t219.5 44q212 0 318 -126t76 -337q-33 -226 -194.5 -358.5t-400.5 -132.5q-283 0 -418 189t-88 519zM508 473 q-15 -90 39 -153.5t172 -63.5q110 0 182 58.5t88 164.5q14 100 -38.5 156.5t-160.5 56.5q-117 0 -193.5 -62t-88.5 -157z" />
<glyph unicode="7" horiz-adv-x="1200" d="M237 1163l39 271h1094l-34 -232l-718 -1202h-342l696 1163h-448l-29 -200z" />
<glyph unicode="8" horiz-adv-x="1304" d="M133 399q18 124 108 223t226 146q-89 50 -132.5 131t-30.5 176q25 171 176 272t380 101q231 0 352.5 -103t96.5 -278q-13 -95 -76.5 -174.5t-157.5 -124.5q115 -48 172.5 -145.5t39.5 -219.5q-28 -192 -200.5 -304.5t-435.5 -112.5q-266 0 -406 111.5t-112 301.5z M446 434q-14 -98 48 -150.5t193 -52.5q128 0 206.5 52.5t92.5 148.5q14 95 -50 147t-194 52q-129 0 -205.5 -51.5t-90.5 -145.5zM573 1049q-12 -83 42 -129t164 -46q109 0 175 46t78 129q12 85 -40.5 130.5t-161.5 45.5q-111 0 -178 -46t-79 -130z" />
<glyph unicode="9" horiz-adv-x="1284" d="M119 100l157 238q120 -92 294 -92q181 0 287 110.5t129 305.5q-65 -80 -162.5 -124t-219.5 -44q-212 0 -318 125.5t-76 336.5q33 226 194.5 359t400.5 133q283 0 418 -189.5t88 -519.5q-50 -343 -256 -548t-502 -205q-116 0 -234.5 31t-199.5 83zM510 954 q-14 -100 38.5 -156.5t160.5 -56.5q117 0 193 62.5t88 157.5q15 90 -38.5 153.5t-171.5 63.5q-110 0 -182 -59t-88 -165z" />
<glyph unicode=":" horiz-adv-x="473" d="M103 145q10 71 61.5 116.5t119.5 45.5q69 0 106.5 -45t27.5 -117q-11 -71 -61.5 -117t-119.5 -46q-68 0 -106 46.5t-28 116.5zM191 754q10 71 61.5 116t119.5 45q69 0 106.5 -44.5t27.5 -116.5q-11 -71 -61.5 -117.5t-119.5 -46.5q-68 0 -106 47t-28 117z" />
<glyph unicode=";" horiz-adv-x="477" d="M34 -188l116 206q-56 45 -45 127q10 70 61.5 115t119.5 45q64 0 102.5 -43t27.5 -117q-10 -68 -61 -127l-167 -206h-154zM191 754q10 71 61.5 116t119.5 45q69 0 106.5 -44.5t27.5 -116.5q-11 -71 -61.5 -117.5t-119.5 -46.5q-68 0 -106 47t-28 117z" />
<glyph unicode="&#x3c;" horiz-adv-x="1036" d="M144 532l38 265l956 381l-33 -234l-735 -278l654 -281l-33 -233z" />
<glyph unicode="=" horiz-adv-x="1036" d="M117 344l30 209h901l-30 -209h-901zM180 782l30 209h902l-31 -209h-901z" />
<glyph unicode="&#x3e;" horiz-adv-x="1036" d="M91 166l34 233l735 279l-654 280l33 234l845 -381l-39 -264z" />
<glyph unicode="?" horiz-adv-x="946" d="M148 985q35 213 172.5 332t347.5 119q199 0 301 -92.5t78 -260.5q-9 -64 -34.5 -118.5t-59 -94t-72.5 -75.5t-77.5 -69t-71.5 -67.5t-57.5 -79.5t-31.5 -96h-237q13 89 50 158.5t82 113t89.5 82.5t79 87.5t42.5 107.5q10 72 -28.5 108t-118.5 36q-173 0 -210 -193z M316 145q10 72 61 117t120 45q68 0 106 -45.5t28 -116.5q-10 -70 -61.5 -116.5t-119.5 -46.5q-69 0 -107 46t-27 117z" />
<glyph unicode="@" horiz-adv-x="1916" d="M134 547q27 184 122 349t234 282.5t318.5 186.5t368.5 69q252 0 439 -112.5t273.5 -312.5t50.5 -448q-33 -228 -162 -367t-302 -139q-200 0 -216 160v31q-139 -168 -348 -168q-88 0 -165.5 34.5t-131.5 95.5t-79 151t-10 194q29 203 168.5 343t331.5 140q59 0 111.5 -17 t85 -41.5t52 -45.5t24.5 -33l16 115h240l-100 -697q-15 -102 69 -102q70 0 137 97t88 243q21 147 -9 275t-105 222.5t-199.5 148.5t-283.5 54q-197 0 -377 -94.5t-300 -257.5t-148 -356q-21 -143 15 -268t116 -213.5t201.5 -139.5t266.5 -51q95 0 205.5 31.5t201.5 91.5 l69 -158q-98 -66 -239.5 -106.5t-262.5 -40.5q-187 0 -342.5 65t-257.5 178t-147 272t-19 339zM790 563q-16 -110 34 -188t147 -78q103 0 175 75.5t88 188.5q15 107 -37.5 179.5t-155.5 72.5q-95 0 -165.5 -72.5t-85.5 -177.5z" />
<glyph unicode="A" horiz-adv-x="1554" d="M-6 0l829 1434h334l406 -1434h-346l-73 279h-664l-152 -279h-334zM624 539h453l-145 557z" />
<glyph unicode="B" horiz-adv-x="1458" d="M158 0l206 1434h660q236 0 360 -96q104 -81 104 -211q0 -25 -4 -52q-16 -117 -95 -201.5t-198 -113.5q135 -26 201 -124q51 -75 51 -176q0 -30 -5 -63q-26 -184 -186.5 -290.5t-411.5 -106.5h-682zM519 264h320q116 0 187.5 45.5t83.5 128.5q2 12 2 24q0 61 -50 99 q-59 45 -174 45h-319zM605 856h319q91 0 150.5 42.5t69.5 117.5q2 13 2 25q0 55 -38 88q-46 40 -139 40h-319z" />
<glyph unicode="C" horiz-adv-x="1421" d="M159 719q22 153 100 287.5t193 230.5t265 151.5t310 55.5q155 0 298 -64.5t233 -173.5l-221 -229q-62 86 -154.5 136t-191.5 50q-185 0 -329 -126.5t-171 -313.5q-5 -38 -6 -73q1 -140 87 -242q108 -128 292 -127q96 0 202 45.5t195 122.5l160 -207 q-132 -118 -296.5 -187t-319.5 -69q-211 0 -369.5 96t-232.5 264q-53 120 -53 258q0 56 9 115z" />
<glyph unicode="D" horiz-adv-x="1574" d="M158 0l206 1434h609q220 0 379 -90q158 -90 230 -254q50 -115 50 -253q0 -58 -9 -120q-30 -209 -150 -372t-307.5 -254t-411.5 -91h-596zM521 272h292q181 0 316.5 124t163.5 319q6 42 6 80q0 143 -82 241q-104 125 -290 125h-278z" />
<glyph unicode="E" horiz-adv-x="1368" d="M158 0l206 1434h1092l-39 -269h-768l-45 -311h693l-39 -268h-692l-46 -318h790l-38 -268h-1114z" />
<glyph unicode="F" horiz-adv-x="1218" d="M158 0l206 1434h1030l-40 -269h-705l-51 -352h648l-39 -270h-648l-78 -543h-323z" />
<glyph unicode="G" horiz-adv-x="1525" d="M159 717q30 204 155.5 370.5t318.5 261.5t413 95q158 0 303.5 -56.5t241.5 -152.5l-216 -231q-69 74 -167.5 116.5t-202.5 42.5q-191 0 -339.5 -128.5t-175.5 -317.5q-5 -36 -5 -70q0 -84 32 -158q45 -103 140.5 -162t220.5 -59q128 0 292 78l54 377h281l-79 -551 q-126 -84 -293 -135t-316 -51q-160 0 -293.5 56t-221 153t-126.5 233q-25 86 -25 180q0 53 8 109z" />
<glyph unicode="H" horiz-adv-x="1611" d="M158 0l206 1434h324l-86 -598h649l86 598h324l-207 -1434h-324l82 565h-649l-82 -565h-323z" />
<glyph unicode="I" horiz-adv-x="641" d="M158 0l206 1434h324l-207 -1434h-323z" />
<glyph unicode="J" horiz-adv-x="1073" d="M22 209l182 229q62 -77 137 -118t144 -41q81 0 133.5 48.5t65.5 139.5l139 967h326l-141 -975q-32 -224 -178.5 -348.5t-370.5 -124.5q-279 0 -437 223z" />
<glyph unicode="K" horiz-adv-x="1509" d="M158 0l206 1434h324l-94 -652l690 652h375l-625 -598l455 -836h-389l-328 584l-240 -230l-51 -354h-323z" />
<glyph unicode="L" horiz-adv-x="1130" d="M158 0l206 1434h324l-166 -1151h614l-40 -283h-938z" />
<glyph unicode="M" horiz-adv-x="1873" d="M158 0l206 1434h363l291 -877l542 877h361l-207 -1434h-291l140 967l-500 -822h-211l-262 822l-139 -967h-293z" />
<glyph unicode="N" horiz-adv-x="1613" d="M158 0l206 1434h295l564 -922l133 922h307l-207 -1434h-295l-562 920l-132 -920h-309z" />
<glyph unicode="O" horiz-adv-x="1650" d="M159 717q30 206 154 372.5t314 260.5t406 94t379 -94q163 -96 240 -262q55 -120 55 -259q0 -54 -8 -112q-30 -204 -154.5 -371.5t-315 -263.5t-406.5 -96t-379 96q-162 94 -238 262q-55 120 -55 260q0 55 8 113zM490 717q-5 -33 -4 -65q0 -58 14 -112q24 -84 75 -143 t127.5 -94t165.5 -35q181 0 326.5 130.5t172.5 318.5q5 38 5 73q0 141 -86 243q-108 128 -289 128q-183 0 -331.5 -128.5t-175.5 -315.5z" />
<glyph unicode="P" horiz-adv-x="1388" d="M158 0l206 1434h609q274 0 405 -130q103 -103 104 -272q0 -45 -8 -96q-36 -251 -205.5 -388.5t-443.5 -137.5h-285l-59 -410h-323zM579 680h269q136 0 218 62t100 184q4 25 4 47q0 84 -52 132q-64 60 -201 60h-268z" />
<glyph unicode="Q" horiz-adv-x="1669" d="M159 717q30 206 154 372.5t314 260.5t406 94t379 -94.5t240 -261.5q55 -119 55 -259q0 -55 -8 -112q-34 -237 -194 -421t-392 -263q77 -109 179 -109q107 0 268 113l86 -211q-94 -73 -208.5 -115.5t-219.5 -42.5q-144 0 -252 84t-163 234q-158 4 -288.5 61.5t-216 154 t-123.5 230.5q-24 85 -24 177q0 53 8 108zM490 717q-5 -33 -5 -65q0 -58 15 -112q24 -83 75 -142.5t127.5 -94.5t165.5 -35q181 0 326.5 130.5t172.5 318.5q5 38 5 73q0 141 -86 243q-108 128 -289 128q-183 0 -331.5 -128.5t-175.5 -315.5z" />
<glyph unicode="R" horiz-adv-x="1482" d="M158 0l206 1434h623q281 0 416 -130q107 -103 108 -275q0 -44 -8 -93q-24 -165 -109.5 -283t-225.5 -180l237 -473h-367l-168 410h-31h-299l-59 -410h-323zM579 680h299q135 0 216.5 62t99.5 184q4 25 4 47q0 83 -51 131q-64 60 -199 61h-299z" />
<glyph unicode="S" horiz-adv-x="1304" d="M72 217l167 264q95 -97 228 -156t249 -59q100 0 161.5 35.5t71.5 101.5q1 9 1 18q0 31 -16 57q-22 32 -63 53.5t-95.5 39t-115.5 35.5t-121 38.5t-113 53t-91 74.5t-55 106q-10 38 -10 82q0 31 5 64q28 194 196.5 309t419.5 115q148 0 285 -42t237 -114l-164 -268 q-103 67 -220.5 107t-204.5 40q-84 0 -137.5 -29.5t-61.5 -86.5q-1 -9 -1 -18q0 -31 16 -56q22 -32 63 -53t96 -39.5t115.5 -37t120.5 -40t112.5 -55t90.5 -76.5t54 -109q10 -38 9 -82q0 -32 -5 -67q-19 -137 -108.5 -236t-222 -147.5t-293.5 -48.5q-174 0 -333 61t-267 166 z" />
<glyph unicode="T" horiz-adv-x="1230" d="M183 1159l40 275h1198l-39 -275h-439l-167 -1159h-323l167 1159h-437z" />
<glyph unicode="U" horiz-adv-x="1556" d="M218 600l120 834h323l-120 -834q-5 -34 -5 -65q0 -107 60 -177q78 -90 225 -90q146 0 245.5 89t121.5 243l120 834h324l-120 -834q-41 -284 -238 -449t-494 -165q-299 0 -451 166q-120 130 -120 333q0 55 9 115z" />
<glyph unicode="V" horiz-adv-x="1466" d="M207 1434h348l235 -1082l549 1082h334l-776 -1434h-334z" />
<glyph unicode="W" horiz-adv-x="2183" d="M207 1434h348l145 -1082l455 1082h317l148 -1082l454 1082h332l-682 -1434h-333l-142 1022l-442 -1022h-334z" />
<glyph unicode="X" horiz-adv-x="1476" d="M16 0l620 733l-378 701h377l235 -439l365 439h383l-576 -686l410 -748h-387l-269 477l-401 -477h-379z" />
<glyph unicode="Y" horiz-adv-x="1363" d="M200 1434h326l274 -643l451 643h326l-662 -971l-67 -463h-324l66 455z" />
<glyph unicode="Z" horiz-adv-x="1376" d="M63 0l32 219l939 944h-776l39 271h1210l-31 -217l-937 -947h813l-41 -270h-1248z" />
<glyph unicode="[" horiz-adv-x="729" d="M121 -254l256 1774h530l-35 -244h-250l-185 -1286h250l-35 -244h-531z" />
<glyph unicode="\" horiz-adv-x="991" d="M344 1663h266l385 -1892h-266z" />
<glyph unicode="]" horiz-adv-x="913" d="M189 -254l35 244h250l185 1286h-250l35 244h531l-256 -1774h-530z" />
<glyph unicode="^" horiz-adv-x="1153" d="M103 276l494 799h267l263 -799h-231l-192 617l-369 -617h-232z" />
<glyph unicode="_" horiz-adv-x="1181" d="M-60 -418l26 180h1181l-26 -180h-1181z" />
<glyph unicode="`" horiz-adv-x="716" d="M304 1458l309 109l171 -334h-252z" />
<glyph unicode="a" d="M113 330q23 156 144.5 243.5t323.5 88.5h303l3 20q3 18 3 34q0 64 -42 102q-52 48 -164 48q-153 0 -342 -96l-67 217q140 65 259 96t257 31q221 0 329 -104q87 -84 86 -221q0 -33 -5 -70l-101 -719h-309l18 129q-135 -143 -367 -143q-174 0 -262 96q-71 76 -71 189 q0 29 4 59zM411 350q-2 -11 -1 -22q0 -48 33 -79q41 -38 120 -38q99 0 177.5 47.5t102.5 118.5l14 98h-248q-92 0 -140 -30t-58 -95z" />
<glyph unicode="b" horiz-adv-x="1398" d="M162 0l219 1520h315l-83 -580q146 172 373 172q232 0 352 -156q92 -119 92 -297q0 -54 -8 -114q-36 -251 -198.5 -404t-393.5 -153t-330 172l-23 -160h-315zM557 555q-4 -31 -4 -60q0 -97 49 -161q64 -84 186 -84q121 0 208.5 85t107.5 220q4 31 4 59q0 94 -48 159 q-64 85 -185 85t-209.5 -84.5t-108.5 -218.5z" />
<glyph unicode="c" horiz-adv-x="1153" d="M136 547q37 253 215 409t432 156q157 0 271.5 -60t172.5 -171l-235 -154q-77 117 -228 117h-8q-116 0 -200.5 -81.5t-103.5 -213.5q-5 -32 -5 -60q0 -92 47 -156q61 -83 177 -83q172 0 274 129l196 -148q-86 -116 -221.5 -179.5t-302.5 -63.5q-251 0 -384 154 q-105 122 -105 303q0 49 8 102z" />
<glyph unicode="d" horiz-adv-x="1402" d="M137 555q36 252 199 405.5t394 153.5q232 0 331 -174l84 580h313l-219 -1520h-313l23 162q-145 -174 -373 -174q-236 0 -356 156q-92 119 -92 297q0 54 9 114zM452 547q-4 -30 -4 -57q0 -98 50 -164q64 -84 188 -84q121 0 209.5 85t108.5 220q5 32 5 61q1 94 -49 159 q-64 85 -186 85t-211.5 -85.5t-110.5 -219.5z" />
<glyph unicode="e" horiz-adv-x="1222" d="M136 547q37 254 216.5 409.5t432.5 155.5q285 0 397 -175q72 -112 72 -277q0 -94 -23 -205h-791q13 -104 80 -163t173 -59q161 0 295 117l142 -168q-202 -194 -499 -194q-263 0 -397 154q-106 121 -106 303q0 49 8 102zM461 641h502q2 20 2 39q0 82 -46 136 q-57 66 -165 65q-103 0 -180.5 -65t-112.5 -175z" />
<glyph unicode="f" horiz-adv-x="761" d="M184 834l31 219h148l15 104q17 119 85 206t164.5 129t209.5 42q171 0 278 -78l-146 -229q-56 47 -130 47q-58 0 -99.5 -33t-50.5 -96l-13 -92h260l-32 -219h-260l-120 -834h-313l120 834h-147z" />
<glyph unicode="g" horiz-adv-x="1320" d="M79 -264l148 221q139 -111 326 -111q135 0 224.5 66.5t106.5 179.5l18 125q-138 -160 -355 -160q-214 0 -327 147q-86 113 -86 280q0 51 8 106q34 233 186 377.5t363 144.5h8q214 0 309 -160l21 150h314l-145 -1000q-34 -234 -215 -373t-446 -139q-263 0 -458 146z M436 582q-4 -28 -4 -54q0 -90 47 -152q60 -79 176 -79q115 0 198 79.5t101 205.5q4 30 4 56q0 90 -46 151q-60 79 -175 79t-198 -79.5t-103 -206.5z" />
<glyph unicode="h" horiz-adv-x="1382" d="M162 0l219 1520h315l-88 -613q146 204 411 207q186 0 279 -114q71 -88 71 -222q0 -41 -6 -86l-99 -692h-316l87 600q3 24 3 46q0 72 -38 118q-50 60 -150 61q-117 -1 -197 -80t-98 -202l-78 -543h-315z" />
<glyph unicode="i" horiz-adv-x="618" d="M152 0l158 1102h316l-159 -1102h-315zM343 1415q11 77 66 126.5t130 49.5q75 1 115 -49q31 -39 32 -95q0 -15 -3 -32q-11 -77 -65.5 -126.5t-129.5 -49.5q-76 -1 -116 49q-32 39 -31 95q0 16 2 32z" />
<glyph unicode="j" horiz-adv-x="630" d="M-225 -338l120 232q60 -44 122 -44q54 0 90.5 32.5t45.5 97.5l161 1122h314l-164 -1135q-17 -121 -83.5 -208.5t-158 -129t-197.5 -41.5q-148 0 -250 74zM333 1415q11 77 70 126.5t138 49.5q81 0 124 -49q34 -39 34 -96q0 -15 -2 -31q-11 -77 -68.5 -126.5t-138.5 -49.5 q-78 0 -123 50q-36 40 -36 97q0 14 2 29z" />
<glyph unicode="k" horiz-adv-x="1267" d="M162 0l219 1520h315l-120 -836l463 416h359l-465 -424l324 -676h-372l-202 449l-163 -150l-43 -299h-315z" />
<glyph unicode="l" horiz-adv-x="641" d="M162 0l219 1520h315l-219 -1520h-315z" />
<glyph unicode="m" horiz-adv-x="2127" d="M152 0l158 1102h316l-28 -191q144 200 402 203q139 0 226 -66.5t110 -187.5q142 251 434 254q183 0 274 -114q70 -87 70 -221q0 -41 -7 -87l-100 -692h-313l86 600q4 25 4 47q0 72 -37 118q-48 60 -147 60q-112 -1 -189.5 -79.5t-95.5 -200.5l-78 -545h-313l86 600 q4 25 4 47q0 72 -37 118q-48 60 -145 60q-114 -1 -191.5 -79.5t-95.5 -200.5l-78 -545h-315z" />
<glyph unicode="n" horiz-adv-x="1372" d="M152 0l158 1102h316l-28 -193q144 202 410 205q185 0 278 -114q71 -88 72 -223q0 -40 -7 -85l-100 -692h-315l86 600q4 25 4 47q0 72 -38 118q-49 60 -150 60q-117 -1 -196 -79.5t-97 -202.5l-78 -543h-315z" />
<glyph unicode="o" horiz-adv-x="1296" d="M137 551q37 253 221.5 407t450.5 154q174 0 298 -70q123 -68 179 -196q39 -89 39 -198q0 -47 -7 -97q-36 -252 -221.5 -407.5t-449.5 -155.5q-265 0 -405 156q-112 124 -112 308q0 48 7 99zM454 547q-5 -32 -4 -62q0 -93 48 -157q64 -84 186 -84t210.5 84t107.5 219 q4 31 4 59q0 95 -48 160q-64 84 -186 84q-123 0 -210.5 -84t-107.5 -219z" />
<glyph unicode="p" horiz-adv-x="1400" d="M105 -397l216 1499h315l-23 -162q146 172 373 172q232 0 352 -156q93 -119 93 -297q0 -54 -9 -114q-36 -251 -198.5 -404t-393.5 -153t-330 172l-80 -557h-315zM557 555q-4 -31 -4 -60q0 -95 49 -161q64 -84 186 -84q121 0 208.5 85t107.5 220q4 31 4 59q0 94 -48 159 q-64 85 -185 85t-209.5 -84.5t-108.5 -218.5z" />
<glyph unicode="q" horiz-adv-x="1402" d="M137 555q36 252 199 405.5t394 153.5q232 0 331 -174l23 162h314l-216 -1499h-314l81 559q-145 -174 -373 -174q-235 0 -356 156q-92 119 -92 297q0 54 9 114zM452 547q-4 -30 -4 -57q0 -98 50 -164q64 -84 188 -84q121 0 209.5 85t108.5 220q5 32 5 61q0 94 -49 159 q-65 85 -186 85q-122 0 -211.5 -85.5t-110.5 -219.5z" />
<glyph unicode="r" horiz-adv-x="851" d="M152 0l158 1102h316l-29 -199q146 208 395 211l-43 -297q-26 2 -50 2q-131 0 -225 -67q-110 -80 -131 -222l-76 -530h-315z" />
<glyph unicode="s" horiz-adv-x="1021" d="M57 141l133 213q75 -65 173 -101t191 -36q63 0 103.5 21.5t47.5 64.5q4 31 -17 55t-59 38t-87 30.5t-100.5 31.5t-99 42t-83 60t-51.5 88q-10 34 -11 74q0 24 4 50q16 110 86.5 189t173 117t224.5 38q236 0 413 -123l-140 -215q-175 107 -321 107q-126 0 -138 -82 q-4 -29 17.5 -52t60.5 -37t88.5 -30.5t101.5 -32t100.5 -43t84.5 -62.5q36 -34 52 -89q10 -34 10 -74q0 -24 -4 -51q-16 -109 -87.5 -188t-177.5 -117.5t-233 -38.5q-135 0 -254 39.5t-201 113.5z" />
<glyph unicode="t" horiz-adv-x="872" d="M168 836l31 217h153l44 303h313l-43 -303h299l-32 -219h-299l-65 -455q-3 -20 -3 -37q0 -39 16 -61q22 -29 69 -29h6q60 0 153 41l32 -232q-142 -75 -297 -75q-153 0 -237 88q-65 68 -65 183q0 33 5 69l73 510h-153z" />
<glyph unicode="u" horiz-adv-x="1351" d="M178 410l100 692h315l-87 -602q-4 -25 -4 -48q0 -71 36 -116q47 -60 143 -60q112 1 189 80t95 201l79 545h313l-159 -1102h-313l28 195q-143 -207 -399 -207q-184 0 -274 114q-69 87 -69 220q0 42 7 88z" />
<glyph unicode="v" horiz-adv-x="1138" d="M152 1100l326 2l145 -803l373 803h314l-575 -1102h-323z" />
<glyph unicode="w" horiz-adv-x="1890" d="M152 1100l322 2l132 -789l351 789h310l128 -789l355 789h311l-560 -1102h-315l-133 727l-340 -727h-316z" />
<glyph unicode="x" horiz-adv-x="1206" d="M14 0l462 563l-276 539h360l155 -334l263 334h344l-427 -537l293 -565h-363l-169 360l-294 -360h-348z" />
<glyph unicode="y" horiz-adv-x="1155" d="M-60 -305l166 227q62 -59 134 -59q101 0 160 98l39 62l-301 1079h326l180 -758l369 758h315l-660 -1225q-157 -289 -445 -289q-169 0 -283 107z" />
<glyph unicode="z" horiz-adv-x="1122" d="M78 0l28 199l662 653l-547 2l36 246h940l-29 -199l-661 -653h585l-36 -250z" />
<glyph unicode="{" horiz-adv-x="710" d="M131 508l36 250h73q43 0 65 21.5t29 72.5l56 391q23 154 109.5 216.5t276.5 62.5h121l-35 -244q-106 0 -150.5 -30t-55.5 -105l-39 -271q-16 -109 -59.5 -163t-134.5 -76q85 -23 113 -78.5t12 -163.5l-39 -270q-11 -75 25 -105t142 -30l-35 -244h-121q-191 0 -259.5 63 t-46.5 218l56 389q7 52 -8 74t-58 22h-73z" />
<glyph unicode="|" horiz-adv-x="591" d="M145 -227l271 1876h235l-270 -1876h-236z" />
<glyph unicode="}" horiz-adv-x="808" d="M141 -258l35 244q104 0 148.5 30t55.5 105l39 270q16 108 60.5 163.5t135.5 78.5q-86 22 -114.5 76.5t-12.5 162.5l39 271q11 75 -25 105t-140 30l35 244h121q191 0 259.5 -62.5t46.5 -216.5l-56 -391q-7 -51 8 -72.5t58 -21.5h74l-36 -250h-74q-43 0 -65 -22t-29 -74 l-56 -389q-22 -155 -108.5 -218t-277.5 -63h-121z" />
<glyph unicode="~" horiz-adv-x="1036" d="M195 502q48 334 267 334q46 0 90 -17t72 -37.5t59.5 -37.5t54.5 -17q70 0 83 98h213q-47 -333 -267 -333q-48 0 -92 16.5t-71 36.5t-57.5 36.5t-54.5 16.5q-70 0 -84 -96h-213z" />
<glyph unicode="&#xa1;" horiz-adv-x="489" d="M66 -324l52 363l137 577h192l-30 -577l-52 -363h-299zM246 952q11 72 61.5 118t119.5 46q68 0 105 -46t27 -118q-10 -70 -60.5 -115.5t-118.5 -45.5q-69 0 -106.5 45.5t-27.5 115.5z" />
<glyph unicode="&#xa2;" horiz-adv-x="1142" d="M136 547q32 223 175.5 372t355.5 183l46 323h252l-47 -325q219 -45 309 -219l-235 -154q-79 120 -236 117q-116 0 -200.5 -81.5t-103.5 -213.5q-19 -133 42 -216t177 -83q172 0 274 129l196 -148q-137 -184 -381 -231l-45 -309h-252l44 305q-201 34 -301.5 182.5 t-69.5 368.5z" />
<glyph unicode="&#xa3;" horiz-adv-x="1134" d="M63 0l37 256h160l47 328h-159l32 225h160l24 166q32 226 173.5 349.5t365.5 123.5q123 0 226.5 -46t173.5 -132l-158 -246q-115 141 -248 141q-181 0 -209 -196l-23 -160h349l-33 -225h-348l-47 -328h542l-36 -256h-1029z" />
<glyph unicode="&#xa4;" horiz-adv-x="1443" d="M82 168l236 209q-63 132 -41 280q21 145 115 273l-171 203l202 184l177 -207q140 80 292 80q153 0 272 -78l234 205l152 -184l-232 -203q59 -124 38 -273q-22 -152 -122 -282l177 -207l-205 -184l-184 215q-138 -72 -283 -72t-262 72l-246 -215zM525 657 q-17 -114 56.5 -194t194.5 -80q122 0 220.5 80t114.5 194t-59 195.5t-197 81.5q-121 0 -217 -81.5t-113 -195.5z" />
<glyph unicode="&#xa5;" horiz-adv-x="1337" d="M187 291l19 127h378l6 37l-42 106h-322l18 125h254l-298 748h326l274 -643l451 643h326l-509 -748h251l-18 -125h-319l-65 -98l-7 -45h371l-18 -127h-371l-42 -291h-326l42 291h-379z" />
<glyph unicode="&#xa6;" horiz-adv-x="591" d="M145 -227l102 702h235l-101 -702h-236zM314 944l102 705h235l-101 -705h-236z" />
<glyph unicode="&#xa7;" horiz-adv-x="1085" d="M34 -20l119 200q175 -139 367 -139q75 0 124 26.5t55 67.5q5 36 -24.5 63.5t-80 47t-112.5 38.5t-123 46t-109.5 62t-74 93t-14.5 133q13 94 83 163.5t183 105.5q-87 44 -117 94t-20 121q20 141 151 230t327 89q228 0 415 -121l-125 -200q-183 106 -319 106 q-70 0 -115.5 -25t-51.5 -65q-5 -33 18 -59t64 -43t94 -35.5t108.5 -35.5t107.5 -45t90.5 -61.5t57.5 -87t9 -120.5q-12 -89 -81.5 -162.5t-166.5 -108.5q73 -42 100.5 -89t15.5 -126q-21 -141 -155.5 -231t-336.5 -90q-131 0 -252.5 41t-210.5 117zM444 639 q-8 -56 51 -91.5t154 -35.5q81 0 128.5 27t53.5 71q8 55 -51.5 90t-155.5 35q-80 0 -127 -26t-53 -70z" />
<glyph unicode="&#xa8;" horiz-adv-x="768" d="M223 1421q10 67 57.5 110.5t112.5 43.5q66 0 101.5 -43t25.5 -111q-10 -66 -57.5 -109.5t-113.5 -43.5q-64 0 -100 43.5t-26 109.5zM608 1421q10 67 57.5 110.5t112.5 43.5t101 -43.5t26 -110.5q-10 -66 -58.5 -109.5t-112.5 -43.5t-100 43.5t-26 109.5z" />
<glyph unicode="&#xa9;" horiz-adv-x="1499" d="M158 713q27 187 141.5 347.5t288.5 255.5t365 95q143 0 264 -55t199 -148.5t113.5 -221.5t15.5 -269q-20 -140 -93 -268.5t-179 -223t-243.5 -151t-281.5 -56.5q-143 0 -263.5 55.5t-198.5 149.5t-113 222t-15 268zM305 713q-21 -147 32 -271t167.5 -197t265.5 -73 q152 0 289.5 74t227.5 199t111 272q16 110 -12 209.5t-90 172t-157 115.5t-208 43q-151 0 -288 -73.5t-227 -198.5t-111 -272zM502 715q21 146 139.5 244t272.5 98q73 0 141 -30t113 -83l-106 -108q-31 41 -75 64.5t-90 23.5q-88 0 -156 -59.5t-81 -147.5t38 -148.5 t139 -60.5q44 0 96 21.5t94 58.5l76 -99q-62 -56 -140.5 -88t-153.5 -32q-152 0 -240 99t-67 247z" />
<glyph unicode="&#xaa;" horiz-adv-x="798" d="M214 1133q14 92 89.5 142t202.5 50h185l2 14q7 48 -24 74.5t-99 26.5q-96 0 -224 -51l-31 145q184 70 330 70q142 0 212.5 -63t52.5 -175l-60 -428h-213l13 90q-86 -100 -236 -100q-106 0 -160 56t-40 149zM422 1149q-5 -37 17.5 -58.5t68.5 -21.5q98 0 157 78l11 74 h-140q-103 0 -114 -72z" />
<glyph unicode="&#xab;" horiz-adv-x="997" d="M97 543l297 370h258l-273 -370l166 -373h-258zM523 543l297 370h256l-271 -370l164 -373h-256z" />
<glyph unicode="&#xac;" horiz-adv-x="1173" d="M162 653l30 209h966l-83 -577h-227l53 368h-739z" />
<glyph unicode="&#xad;" horiz-adv-x="761" d="M192 522l30 209h528l-30 -209h-528z" />
<glyph unicode="&#xae;" horiz-adv-x="1499" d="M158 713q27 187 141.5 347.5t288.5 255.5t365 95q143 0 264 -55t199 -148.5t113.5 -221.5t15.5 -269q-20 -140 -93 -268.5t-179 -223t-243.5 -151t-281.5 -56.5q-143 0 -263.5 55.5t-198.5 149.5t-113 222t-15 268zM305 713q-21 -147 32 -271t167.5 -197t265.5 -73 q152 0 289.5 74t227.5 199t111 272q16 110 -12 209.5t-90 172t-157 115.5t-208 43q-151 0 -288 -73.5t-227 -198.5t-111 -272zM544 403l95 666h283q132 0 194.5 -60t46.5 -169q-23 -157 -158 -215l114 -222h-170l-79 193h-16h-135l-28 -193h-147zM736 715h135q63 0 102.5 31 t47.5 88t-22 86.5t-94 29.5h-135z" />
<glyph unicode="&#xaf;" horiz-adv-x="716" d="M269 1298l32 222h555l-32 -222h-555z" />
<glyph unicode="&#xb0;" horiz-adv-x="747" d="M376 1430q14 98 95 168.5t179 70.5q100 0 161.5 -70.5t47.5 -168.5t-96 -169t-182 -71q-98 0 -158.5 71t-46.5 169zM501 1430q-7 -46 22.5 -78.5t76.5 -32.5q49 0 88 32.5t46 78.5q7 45 -23 77.5t-79 32.5q-47 0 -85.5 -32.5t-45.5 -77.5z" />
<glyph unicode="&#xb1;" horiz-adv-x="1036" d="M70 14l30 209h901l-30 -209h-901zM171 715l29 203h350l48 335h201l-48 -335h350l-29 -203h-351l-48 -336h-201l49 336h-350z" />
<glyph unicode="&#xb2;" horiz-adv-x="792" d="M153 582l21 143l364 322q97 85 106 141q5 35 -19 54.5t-73 19.5q-113 0 -257 -109l-63 162q197 127 381 127q132 0 207.5 -61.5t61.5 -161.5q-18 -125 -209 -283l-210 -180h379l-25 -174h-664z" />
<glyph unicode="&#xb3;" horiz-adv-x="739" d="M112 676l114 170q86 -107 206 -107q67 0 107 29t48 80q7 50 -25 76t-99 26h-142l17 119l234 199h-332l24 164h585l-18 -127l-254 -215l42 -9q98 -14 150 -74.5t38 -156.5q-18 -124 -122.5 -201.5t-258.5 -77.5q-91 0 -175.5 28.5t-138.5 76.5z" />
<glyph unicode="&#xb4;" horiz-adv-x="716" d="M280 1233l265 334l277 -111l-292 -223h-250z" />
<glyph unicode="&#xb5;" horiz-adv-x="1394" d="M105 -397l216 1499h315l-87 -602q-15 -104 32.5 -164t144.5 -60q112 1 188 79.5t94 201.5l79 545h315l-159 -1102h-315l27 193q-144 -205 -398 -205q-42 0 -81 6l-56 -391h-315z" />
<glyph unicode="&#xb6;" horiz-adv-x="1308" d="M144 1019q2 38 5 73q12 85 50 159t103 135.5t166.5 97.5t227.5 36h672l-251 -1739h-235l224 1552h-226l-223 -1552h-236l130 901h-57q-67 0 -122 14.5t-91.5 39t-65 57.5t-42 70.5t-22.5 77.5t-7 78z" />
<glyph unicode="&#xb7;" horiz-adv-x="473" d="M167 592q10 69 60 112.5t116 43.5t103.5 -43.5t27.5 -112.5q-10 -70 -60 -115t-116 -45q-67 0 -104 45t-27 115z" />
<glyph unicode="&#xb8;" horiz-adv-x="716" d="M82 -414l79 138q41 -41 100 -41q40 0 67.5 22.5t32.5 54.5t-17.5 53t-66.5 21q-25 0 -75 -8l124 203h178l-85 -131q62 -18 93.5 -61t22.5 -105q-13 -94 -89 -150.5t-183 -56.5q-102 0 -181 61z" />
<glyph unicode="&#xb9;" horiz-adv-x="552" d="M205 1255l26 179h387l-123 -852h-221l97 673h-166z" />
<glyph unicode="&#xba;" horiz-adv-x="841" d="M232 1268q22 151 137 243.5t282 92.5q168 0 257 -92.5t67 -243.5q-22 -152 -137 -244t-284 -92q-167 0 -255.5 92t-66.5 244zM448 1264q-10 -73 26 -118.5t104 -45.5q69 0 118.5 45.5t59.5 118.5q10 75 -25.5 120.5t-104.5 45.5q-68 0 -118 -46t-60 -120z" />
<glyph unicode="&#xbb;" horiz-adv-x="1013" d="M123 170l272 371l-165 372h258l190 -372l-297 -371h-258zM549 170l272 371l-165 372h258l190 -372l-297 -371h-258z" />
<glyph unicode="&#xbc;" horiz-adv-x="1759" d="M125 0l1243 1434h295l-1239 -1434h-299zM205 1255l26 179h387l-123 -852h-221l97 673h-166zM1003 184l22 150l355 518h213l-341 -508h194l27 188h209l-27 -188h121l-23 -160h-121l-26 -184h-209l26 184h-420z" />
<glyph unicode="&#xbd;" horiz-adv-x="1806" d="M125 0l1243 1434h295l-1239 -1434h-299zM205 1255l26 179h387l-123 -852h-221l97 673h-166zM1083 0l21 143l364 320q97 85 106 143q5 35 -19 54.5t-73 19.5q-110 0 -257 -109l-63 160q195 129 381 129q132 0 207.5 -61.5t61.5 -161.5q-18 -125 -209 -283l-210 -182h379 l-25 -172h-664z" />
<glyph unicode="&#xbe;" horiz-adv-x="1882" d="M112 676l114 170q86 -107 206 -107q67 0 107 29t48 80q7 50 -25 76t-99 26h-142l17 119l234 199h-332l24 164h585l-18 -127l-254 -215l42 -9q98 -14 150 -74.5t38 -156.5q-18 -124 -122.5 -201.5t-258.5 -77.5q-91 0 -175.5 28.5t-138.5 76.5zM248 0l1243 1434h295 l-1239 -1434h-299zM1126 184l22 150l355 518h213l-341 -508h194l27 188h209l-27 -188h121l-23 -160h-121l-26 -184h-209l26 184h-420z" />
<glyph unicode="&#xbf;" horiz-adv-x="946" d="M58 16q9 64 34.5 118.5t59 94t72.5 75.5t77.5 69t71.5 67.5t57.5 79.5t31.5 96h237q-11 -75 -39.5 -137t-63 -100.5t-74.5 -76.5t-73.5 -68t-59.5 -73t-33 -93q-10 -72 29 -108t118 -36q176 0 210 193l244 -2q-35 -213 -172.5 -332t-347.5 -119q-199 0 -301 92t-78 260z M475 954q11 71 62 117.5t120 46.5q68 0 106 -47t28 -117q-10 -71 -61.5 -116t-119.5 -45q-69 0 -107 44.5t-28 116.5z" />
<glyph unicode="&#xc0;" horiz-adv-x="1554" d="M-6 0l829 1434h334l406 -1434h-346l-73 279h-664l-152 -279h-334zM624 539h453l-145 557zM688 1792l309 109l171 -334h-252z" />
<glyph unicode="&#xc1;" horiz-adv-x="1554" d="M-6 0l829 1434h334l406 -1434h-346l-73 279h-664l-152 -279h-334zM624 539h453l-145 557zM840 1567l265 334l277 -111l-292 -223h-250z" />
<glyph unicode="&#xc2;" horiz-adv-x="1554" d="M-6 0l829 1434h334l406 -1434h-346l-73 279h-664l-152 -279h-334zM624 539h453l-145 557zM652 1583l267 303h262l180 -303h-232l-98 174l-148 -174h-231z" />
<glyph unicode="&#xc3;" horiz-adv-x="1554" d="M-6 0l829 1434h334l406 -1434h-346l-73 279h-664l-152 -279h-334zM624 539h453l-145 557zM658 1608q45 309 249 309q51 0 94 -25.5t75 -51t56 -25.5q66 0 80 90h195q-45 -306 -249 -306q-42 0 -78.5 16t-57.5 34.5t-45 34.5t-44 16q-67 0 -81 -92h-194z" />
<glyph unicode="&#xc4;" horiz-adv-x="1554" d="M-6 0l829 1434h334l406 -1434h-346l-73 279h-664l-152 -279h-334zM624 539h453l-145 557zM691 1755q10 67 57.5 110.5t112.5 43.5t101 -43.5t26 -110.5q-10 -66 -58 -108.5t-113 -42.5t-100.5 42.5t-25.5 108.5zM1076 1755q10 67 57.5 110.5t112.5 43.5t101 -43.5 t26 -110.5q-10 -66 -58 -108.5t-113 -42.5t-100.5 42.5t-25.5 108.5z" />
<glyph unicode="&#xc5;" horiz-adv-x="1554" d="M-6 0l807 1395q-65 76 -50 180q16 107 103.5 182.5t194.5 75.5t171.5 -75.5t48.5 -182.5q-16 -109 -101 -180l395 -1395h-346l-73 279h-664l-152 -279h-334zM624 539h453l-145 557zM888 1575q-7 -47 24.5 -81t82.5 -34t91.5 34t47.5 81q7 49 -24 83t-82 34t-92 -34 t-48 -83z" />
<glyph unicode="&#xc6;" horiz-adv-x="2222" d="M-6 0l1028 1434h1288l-39 -269h-768l-45 -311h693l-39 -268h-692l-46 -316h791l-39 -270h-1112l45 315h-512l-215 -315h-338zM716 561h379l88 615h-45z" />
<glyph unicode="&#xc7;" horiz-adv-x="1421" d="M159 719q22 153 100 287.5t193 230.5t265 151.5t310 55.5q155 0 298 -64.5t233 -173.5l-221 -229q-62 86 -154.5 136t-191.5 50q-185 0 -329 -126.5t-171 -313.5t80.5 -314.5t292.5 -127.5q96 0 202 45.5t195 122.5l160 -207q-111 -100 -249 -165.5t-276 -84.5l-61 -94 q62 -18 93.5 -61t22.5 -105q-13 -94 -89 -150.5t-183 -56.5q-103 0 -182 61l80 138q41 -41 100 -41q40 0 67 22.5t32 54.5t-17 53t-66 21q-25 0 -75 -8l99 164q-140 15 -254 77t-188 157.5t-105.5 223.5t-10.5 271z" />
<glyph unicode="&#xc8;" horiz-adv-x="1368" d="M158 0l206 1434h1092l-39 -269h-768l-45 -311h693l-39 -268h-692l-46 -318h790l-38 -268h-1114zM617 1792l308 109l171 -334h-252z" />
<glyph unicode="&#xc9;" horiz-adv-x="1368" d="M158 0l206 1434h1092l-39 -269h-768l-45 -311h693l-39 -268h-692l-46 -318h790l-38 -268h-1114zM768 1567l266 334l277 -111l-293 -223h-250z" />
<glyph unicode="&#xca;" horiz-adv-x="1368" d="M158 0l206 1434h1092l-39 -269h-768l-45 -311h693l-39 -268h-692l-46 -318h790l-38 -268h-1114zM582 1583l267 303h262l180 -303h-231l-98 174l-148 -174h-232z" />
<glyph unicode="&#xcb;" horiz-adv-x="1368" d="M158 0l206 1434h1092l-39 -269h-768l-45 -311h693l-39 -268h-692l-46 -318h790l-38 -268h-1114zM622 1755q10 68 57.5 111t111.5 43q65 0 101.5 -43.5t26.5 -110.5q-10 -66 -58.5 -108.5t-113.5 -42.5q-64 0 -99.5 42.5t-25.5 108.5zM1007 1755q10 68 57.5 111t111.5 43 q65 0 101.5 -43.5t26.5 -110.5q-10 -66 -58.5 -108.5t-113.5 -42.5q-64 0 -99.5 42.5t-25.5 108.5z" />
<glyph unicode="&#xcc;" horiz-adv-x="641" d="M158 0l206 1434h324l-207 -1434h-323zM230 1792l308 109l171 -334h-252z" />
<glyph unicode="&#xcd;" horiz-adv-x="641" d="M158 0l206 1434h324l-207 -1434h-323zM381 1567l266 334l277 -111l-293 -223h-250z" />
<glyph unicode="&#xce;" horiz-adv-x="641" d="M158 0l206 1434h324l-207 -1434h-323zM193 1583l267 303h262l180 -303h-232l-97 174l-148 -174h-232z" />
<glyph unicode="&#xcf;" horiz-adv-x="641" d="M158 0l206 1434h324l-207 -1434h-323zM232 1755q10 67 57.5 110.5t112.5 43.5t101 -43.5t26 -110.5q-10 -66 -58 -108.5t-113 -42.5t-100.5 42.5t-25.5 108.5zM617 1755q10 67 57.5 110.5t112.5 43.5t101 -43.5t26 -110.5q-10 -66 -58 -108.5t-113 -42.5t-100.5 42.5 t-25.5 108.5z" />
<glyph unicode="&#xd0;" horiz-adv-x="1632" d="M91 629l26 180h215l90 625h608q220 0 378.5 -90.5t230 -254t41.5 -372.5t-150 -372t-307.5 -254t-411.5 -91h-596l91 629h-215zM578 272h293q181 0 316 123.5t163 319.5t-76 321t-290 125h-278l-51 -352h352l-26 -180h-352z" />
<glyph unicode="&#xd1;" horiz-adv-x="1613" d="M158 0l206 1434h295l564 -922l133 922h307l-207 -1434h-295l-562 920l-132 -920h-309zM686 1608q45 309 250 309q51 0 94 -25.5t75 -51t56 -25.5q66 0 80 90h195q-45 -306 -249 -306q-42 0 -78.5 16t-57.5 34.5t-45 34.5t-44 16q-67 0 -81 -92h-195z" />
<glyph unicode="&#xd2;" horiz-adv-x="1650" d="M159 717q30 206 154 372.5t314 260.5t406 94t379 -94.5t240 -261t47 -371.5q-30 -204 -154.5 -371.5t-315 -263.5t-406.5 -96t-378.5 95.5t-239 263t-46.5 372.5zM490 717q-13 -93 10.5 -176.5t74.5 -143t127.5 -94.5t165.5 -35q181 0 326.5 130.5t172.5 318.5t-81 316 t-289 128q-183 0 -331.5 -128.5t-175.5 -315.5zM721 1792l309 109l171 -334h-252z" />
<glyph unicode="&#xd3;" horiz-adv-x="1650" d="M159 717q30 206 154 372.5t314 260.5t406 94t379 -94.5t240 -261t47 -371.5q-30 -204 -154.5 -371.5t-315 -263.5t-406.5 -96t-378.5 95.5t-239 263t-46.5 372.5zM490 717q-13 -93 10.5 -176.5t74.5 -143t127.5 -94.5t165.5 -35q181 0 326.5 130.5t172.5 318.5t-81 316 t-289 128q-183 0 -331.5 -128.5t-175.5 -315.5zM873 1567l265 334l277 -111l-292 -223h-250z" />
<glyph unicode="&#xd4;" horiz-adv-x="1650" d="M159 717q30 206 154 372.5t314 260.5t406 94t379 -94.5t240 -261t47 -371.5q-30 -204 -154.5 -371.5t-315 -263.5t-406.5 -96t-378.5 95.5t-239 263t-46.5 372.5zM490 717q-13 -93 10.5 -176.5t74.5 -143t127.5 -94.5t165.5 -35q181 0 326.5 130.5t172.5 318.5t-81 316 t-289 128q-183 0 -331.5 -128.5t-175.5 -315.5zM685 1583l267 303h262l179 -303h-231l-98 174l-148 -174h-231z" />
<glyph unicode="&#xd5;" horiz-adv-x="1650" d="M159 717q30 206 154 372.5t314 260.5t406 94t379 -94.5t240 -261t47 -371.5q-30 -204 -154.5 -371.5t-315 -263.5t-406.5 -96t-378.5 95.5t-239 263t-46.5 372.5zM490 717q-13 -93 10.5 -176.5t74.5 -143t127.5 -94.5t165.5 -35q181 0 326.5 130.5t172.5 318.5t-81 316 t-289 128q-183 0 -331.5 -128.5t-175.5 -315.5zM690 1608q45 309 250 309q51 0 94 -25.5t75 -51t56 -25.5q66 0 80 90h195q-45 -306 -249 -306q-42 0 -78.5 16t-57.5 34.5t-45 34.5t-44 16q-67 0 -81 -92h-195z" />
<glyph unicode="&#xd6;" horiz-adv-x="1650" d="M159 717q30 206 154 372.5t314 260.5t406 94t379 -94.5t240 -261t47 -371.5q-30 -204 -154.5 -371.5t-315 -263.5t-406.5 -96t-378.5 95.5t-239 263t-46.5 372.5zM490 717q-13 -93 10.5 -176.5t74.5 -143t127.5 -94.5t165.5 -35q181 0 326.5 130.5t172.5 318.5t-81 316 t-289 128q-183 0 -331.5 -128.5t-175.5 -315.5zM724 1755q10 67 57.5 110.5t112.5 43.5t101 -43.5t26 -110.5q-10 -66 -58 -108.5t-113 -42.5t-100.5 42.5t-25.5 108.5zM1109 1755q10 67 57.5 110.5t112.5 43.5t101 -43.5t26 -110.5q-10 -66 -58 -108.5t-113 -42.5 t-100.5 42.5t-25.5 108.5z" />
<glyph unicode="&#xd7;" horiz-adv-x="1036" d="M190 422l279 246l-208 245l164 148l210 -248l282 248l122 -148l-279 -245l208 -246l-165 -148l-210 248l-281 -248z" />
<glyph unicode="&#xd8;" horiz-adv-x="1650" d="M159 717q30 206 154 372.5t314 260.5t406 94q67 0 140 -10l110 223h185l-134 -271q199 -83 298.5 -261.5t66.5 -407.5q-30 -204 -154.5 -371.5t-315 -263.5t-406.5 -96q-84 0 -167 16l-119 -240h-182l142 291q-186 87 -278 264t-60 400zM490 717q-17 -117 24 -216 t125 -161l400 819q-14 2 -42 2q-183 0 -331.5 -128.5t-175.5 -315.5zM789 276q35 -8 79 -8q181 0 326.5 130.5t172.5 318.5q18 127 -28 231t-141 160z" />
<glyph unicode="&#xd9;" horiz-adv-x="1556" d="M218 600l120 834h323l-120 -834q-22 -153 55.5 -242.5t224.5 -89.5q146 0 245.5 89t121.5 243l120 834h324l-120 -834q-41 -284 -238 -449t-494 -165q-299 0 -451 165.5t-111 448.5zM688 1792l309 109l171 -334h-252z" />
<glyph unicode="&#xda;" horiz-adv-x="1556" d="M218 600l120 834h323l-120 -834q-22 -153 55.5 -242.5t224.5 -89.5q146 0 245.5 89t121.5 243l120 834h324l-120 -834q-41 -284 -238 -449t-494 -165q-299 0 -451 165.5t-111 448.5zM840 1567l265 334l277 -111l-292 -223h-250z" />
<glyph unicode="&#xdb;" horiz-adv-x="1556" d="M218 600l120 834h323l-120 -834q-22 -153 55.5 -242.5t224.5 -89.5q146 0 245.5 89t121.5 243l120 834h324l-120 -834q-41 -284 -238 -449t-494 -165q-299 0 -451 165.5t-111 448.5zM652 1583l267 303h262l180 -303h-232l-98 174l-148 -174h-231z" />
<glyph unicode="&#xdc;" horiz-adv-x="1556" d="M218 600l120 834h323l-120 -834q-22 -153 55.5 -242.5t224.5 -89.5q146 0 245.5 89t121.5 243l120 834h324l-120 -834q-41 -284 -238 -449t-494 -165q-299 0 -451 165.5t-111 448.5zM691 1755q10 67 57.5 110.5t112.5 43.5t101 -43.5t26 -110.5q-10 -66 -58 -108.5 t-113 -42.5t-100.5 42.5t-25.5 108.5zM1076 1755q10 67 57.5 110.5t112.5 43.5t101 -43.5t26 -110.5q-10 -66 -58 -108.5t-113 -42.5t-100.5 42.5t-25.5 108.5z" />
<glyph unicode="&#xdd;" horiz-adv-x="1363" d="M200 1434h326l274 -643l451 643h326l-662 -971l-67 -463h-324l66 455zM744 1567l265 334l277 -111l-292 -223h-250z" />
<glyph unicode="&#xde;" horiz-adv-x="1404" d="M158 0l206 1434h324l-28 -193h268q286 0 427.5 -129.5t108.5 -359.5q-35 -243 -214.5 -379.5t-465.5 -136.5h-269l-34 -236h-323zM552 494h254q141 0 224.5 63.5t100.5 183.5q17 117 -48 179.5t-206 62.5h-254z" />
<glyph unicode="&#xdf;" horiz-adv-x="1351" d="M133 0l145 1006q35 242 201.5 385t417.5 143q230 0 354.5 -111t98.5 -295q-16 -111 -86.5 -204.5t-173.5 -139.5q130 -35 198 -126t49 -222q-28 -195 -198.5 -315.5t-423.5 -120.5h-103l34 233h96q121 0 197.5 55t90.5 148q14 96 -55.5 147.5t-207.5 51.5h-34l33 231 q115 0 187 56.5t86 158.5q14 98 -33.5 152.5t-144.5 54.5q-109 0 -178.5 -68.5t-87.5 -191.5l-149 -1028h-313z" />
<glyph unicode="&#xe0;" d="M113 330q23 156 144.5 243.5t323.5 88.5h303l3 20q13 89 -38.5 136.5t-164.5 47.5q-153 0 -342 -96l-67 217q140 65 259 96t257 31q221 0 328.5 -104t81.5 -291l-101 -719h-309l18 129q-135 -143 -367 -143q-174 0 -262.5 95.5t-66.5 248.5zM411 350q-9 -63 32 -101 t120 -38q99 0 177.5 47.5t102.5 118.5l14 98h-248q-92 0 -140 -30t-58 -95zM468 1458l309 109l171 -334h-252z" />
<glyph unicode="&#xe1;" d="M113 330q23 156 144.5 243.5t323.5 88.5h303l3 20q13 89 -38.5 136.5t-164.5 47.5q-153 0 -342 -96l-67 217q140 65 259 96t257 31q221 0 328.5 -104t81.5 -291l-101 -719h-309l18 129q-135 -143 -367 -143q-174 0 -262.5 95.5t-66.5 248.5zM411 350q-9 -63 32 -101 t120 -38q99 0 177.5 47.5t102.5 118.5l14 98h-248q-92 0 -140 -30t-58 -95zM620 1233l265 334l277 -111l-292 -223h-250z" />
<glyph unicode="&#xe2;" d="M113 330q23 156 144.5 243.5t323.5 88.5h303l3 20q13 89 -38.5 136.5t-164.5 47.5q-153 0 -342 -96l-67 217q140 65 259 96t257 31q221 0 328.5 -104t81.5 -291l-101 -719h-309l18 129q-135 -143 -367 -143q-174 0 -262.5 95.5t-66.5 248.5zM411 350q-9 -63 32 -101 t120 -38q99 0 177.5 47.5t102.5 118.5l14 98h-248q-92 0 -140 -30t-58 -95zM432 1249l267 303h262l180 -303h-232l-98 174l-148 -174h-231z" />
<glyph unicode="&#xe3;" d="M113 330q23 156 144.5 243.5t323.5 88.5h303l3 20q13 89 -38.5 136.5t-164.5 47.5q-153 0 -342 -96l-67 217q140 65 259 96t257 31q221 0 328.5 -104t81.5 -291l-101 -719h-309l18 129q-135 -143 -367 -143q-174 0 -262.5 95.5t-66.5 248.5zM411 350q-9 -63 32 -101 t120 -38q99 0 177.5 47.5t102.5 118.5l14 98h-248q-92 0 -140 -30t-58 -95zM438 1274q45 309 249 309q51 0 94 -25.5t75 -51t56 -25.5q66 0 80 90h195q-45 -305 -249 -305q-42 0 -78.5 15.5t-57.5 34.5t-45 34.5t-44 15.5q-67 0 -81 -92h-194z" />
<glyph unicode="&#xe4;" d="M113 330q23 156 144.5 243.5t323.5 88.5h303l3 20q13 89 -38.5 136.5t-164.5 47.5q-153 0 -342 -96l-67 217q140 65 259 96t257 31q221 0 328.5 -104t81.5 -291l-101 -719h-309l18 129q-135 -143 -367 -143q-174 0 -262.5 95.5t-66.5 248.5zM411 350q-9 -63 32 -101 t120 -38q99 0 177.5 47.5t102.5 118.5l14 98h-248q-92 0 -140 -30t-58 -95zM471 1421q10 67 57.5 110.5t112.5 43.5t101 -43.5t26 -110.5q-10 -66 -58 -108.5t-113 -42.5t-100.5 42.5t-25.5 108.5zM856 1421q10 67 57.5 110.5t112.5 43.5t101 -43.5t26 -110.5 q-10 -66 -58 -108.5t-113 -42.5t-100.5 42.5t-25.5 108.5z" />
<glyph unicode="&#xe5;" d="M113 330q23 156 144.5 243.5t323.5 88.5h303l3 20q13 89 -38.5 136.5t-164.5 47.5q-153 0 -342 -96l-67 217q140 65 259 96t257 31q221 0 328.5 -104t81.5 -291l-101 -719h-309l18 129q-135 -143 -367 -143q-174 0 -262.5 95.5t-66.5 248.5zM411 350q-9 -63 32 -101 t120 -38q99 0 177.5 47.5t102.5 118.5l14 98h-248q-92 0 -140 -30t-58 -95zM565 1417q14 100 97 172t184 72t162.5 -72t47.5 -172q-14 -101 -96.5 -172t-184.5 -71q-101 0 -162.5 71t-47.5 172zM694 1417q-7 -47 22 -79.5t78 -32.5q50 0 89 32.5t46 79.5q7 46 -23.5 78.5 t-79.5 32.5t-87 -32.5t-45 -78.5z" />
<glyph unicode="&#xe6;" horiz-adv-x="1982" d="M112 324q22 153 143 235t325 84h305l6 39q13 88 -39.5 136t-165.5 48q-167 0 -368 -96l-42 221q279 123 515 123q254 0 358 -133q159 131 377 131q269 0 396 -173t74 -460h-815q4 -116 72 -181t181 -65q165 0 298 119l141 -172q-203 -192 -499 -192q-159 0 -266.5 62.5 t-156.5 178.5q-169 -243 -492 -243q-183 0 -276 93t-71 245zM411 350q-10 -69 31.5 -110t120.5 -41q185 0 288 163l-4 3l18 120h-244q-91 0 -145.5 -34.5t-64.5 -100.5zM885 354l35 -24l-4 18zM1202 639h504q14 110 -44 181t-164 71q-102 0 -181.5 -69.5t-114.5 -182.5z" />
<glyph unicode="&#xe7;" horiz-adv-x="1153" d="M136 547q37 253 215 409t432 156q157 0 271.5 -60t172.5 -171l-235 -154q-79 120 -236 117q-116 0 -200.5 -81.5t-103.5 -213.5q-19 -133 42 -216t177 -83q172 0 274 129l196 -148q-73 -98 -181 -159t-242 -78l-63 -96q62 -18 93 -61t22 -105q-13 -94 -88.5 -150.5 t-182.5 -56.5q-103 0 -182 61l79 138q41 -41 101 -41q40 0 67 22.5t32 54.5t-17 53t-66 21q-25 0 -75 -8l101 166q-215 25 -325.5 175.5t-77.5 379.5z" />
<glyph unicode="&#xe8;" horiz-adv-x="1222" d="M136 547q37 254 216.5 409.5t432.5 155.5q285 0 397.5 -175t48.5 -482h-791q13 -104 80 -163t173 -59q161 0 295 117l142 -168q-202 -194 -499 -194q-263 0 -397 153.5t-98 405.5zM461 641h502q13 109 -44 174.5t-165 65.5q-103 0 -180.5 -65t-112.5 -175zM476 1458 l309 109l171 -334h-252z" />
<glyph unicode="&#xe9;" horiz-adv-x="1222" d="M136 547q37 254 216.5 409.5t432.5 155.5q285 0 397.5 -175t48.5 -482h-791q13 -104 80 -163t173 -59q161 0 295 117l142 -168q-202 -194 -499 -194q-263 0 -397 153.5t-98 405.5zM461 641h502q13 109 -44 174.5t-165 65.5q-103 0 -180.5 -65t-112.5 -175zM628 1233 l265 334l277 -111l-292 -223h-250z" />
<glyph unicode="&#xea;" horiz-adv-x="1222" d="M136 547q37 254 216.5 409.5t432.5 155.5q285 0 397.5 -175t48.5 -482h-791q13 -104 80 -163t173 -59q161 0 295 117l142 -168q-202 -194 -499 -194q-263 0 -397 153.5t-98 405.5zM440 1249l267 303h262l180 -303h-232l-97 174l-148 -174h-232zM461 641h502 q13 109 -44 174.5t-165 65.5q-103 0 -180.5 -65t-112.5 -175z" />
<glyph unicode="&#xeb;" horiz-adv-x="1222" d="M136 547q37 254 216.5 409.5t432.5 155.5q285 0 397.5 -175t48.5 -482h-791q13 -104 80 -163t173 -59q161 0 295 117l142 -168q-202 -194 -499 -194q-263 0 -397 153.5t-98 405.5zM461 641h502q13 109 -44 174.5t-165 65.5q-103 0 -180.5 -65t-112.5 -175zM479 1421 q10 67 57.5 110.5t112.5 43.5t101 -43.5t26 -110.5q-10 -66 -58 -108.5t-113 -42.5t-100.5 42.5t-25.5 108.5zM864 1421q10 67 57.5 110.5t112.5 43.5t101 -43.5t26 -110.5q-10 -66 -58 -108.5t-113 -42.5t-100.5 42.5t-25.5 108.5z" />
<glyph unicode="&#xec;" horiz-adv-x="618" d="M152 0l158 1102h316l-159 -1102h-315zM171 1458l309 109l171 -334h-252z" />
<glyph unicode="&#xed;" horiz-adv-x="618" d="M152 0l158 1102h316l-159 -1102h-315zM323 1233l265 334l277 -111l-292 -223h-250z" />
<glyph unicode="&#xee;" horiz-adv-x="618" d="M135 1249l267 303h262l180 -303h-232l-98 174l-148 -174h-231zM152 0l158 1102h316l-159 -1102h-315z" />
<glyph unicode="&#xef;" horiz-adv-x="618" d="M152 0l158 1102h316l-159 -1102h-315zM174 1421q10 67 57.5 110.5t112.5 43.5t101 -43.5t26 -110.5q-10 -66 -58 -108.5t-113 -42.5t-100.5 42.5t-25.5 108.5zM559 1421q10 67 57.5 110.5t112.5 43.5t101 -43.5t26 -110.5q-10 -66 -58 -108.5t-113 -42.5t-100.5 42.5 t-25.5 108.5z" />
<glyph unicode="&#xf0;" horiz-adv-x="1228" d="M122 461q29 204 173.5 327t356.5 123q106 0 192.5 -36.5t127.5 -98.5q-32 174 -189 350l-342 -110l-27 151l243 80q-114 90 -232 150l230 137q170 -75 300 -191l299 97l25 -154l-206 -67q112 -139 159 -305.5t22 -342.5q-38 -267 -222 -426t-454 -159q-239 0 -363 129 t-93 346zM425 479q-14 -101 42.5 -162t163.5 -61q110 0 184 59t88 156q14 100 -42.5 160.5t-166.5 60.5q-109 0 -182 -58t-87 -155z" />
<glyph unicode="&#xf1;" horiz-adv-x="1372" d="M152 0l158 1102h316l-28 -193q144 202 410 205q185 0 278 -114.5t65 -307.5l-100 -692h-315l86 600q15 105 -34 165t-150 60q-117 -1 -196 -79.5t-97 -202.5l-78 -543h-315zM550 1274q45 309 250 309q40 0 76.5 -16t57.5 -35t45.5 -35t44.5 -16q67 0 81 90h195 q-45 -305 -249 -305q-42 0 -78.5 15.5t-57.5 34.5t-45 34.5t-44 15.5q-67 0 -81 -92h-195z" />
<glyph unicode="&#xf2;" horiz-adv-x="1296" d="M137 551q37 253 221.5 407t450.5 154q174 0 298 -69.5t179.5 -197t31.5 -294.5q-36 -252 -221.5 -407.5t-449.5 -155.5q-265 0 -405.5 155.5t-104.5 407.5zM454 547q-20 -135 43.5 -219t186.5 -84q122 0 210.5 84t107.5 219t-44.5 219t-185.5 84q-123 0 -210.5 -84 t-107.5 -219zM509 1458l309 109l171 -334h-252z" />
<glyph unicode="&#xf3;" horiz-adv-x="1296" d="M137 551q37 253 221.5 407t450.5 154q174 0 298 -69.5t179.5 -197t31.5 -294.5q-36 -252 -221.5 -407.5t-449.5 -155.5q-265 0 -405.5 155.5t-104.5 407.5zM454 547q-20 -135 43.5 -219t186.5 -84q122 0 210.5 84t107.5 219t-44.5 219t-185.5 84q-123 0 -210.5 -84 t-107.5 -219zM661 1233l265 334l277 -111l-292 -223h-250z" />
<glyph unicode="&#xf4;" horiz-adv-x="1296" d="M137 551q37 253 221.5 407t450.5 154q174 0 298 -69.5t179.5 -197t31.5 -294.5q-36 -252 -221.5 -407.5t-449.5 -155.5q-265 0 -405.5 155.5t-104.5 407.5zM454 547q-20 -135 43.5 -219t186.5 -84q122 0 210.5 84t107.5 219t-44.5 219t-185.5 84q-123 0 -210.5 -84 t-107.5 -219zM475 1249l267 303h262l180 -303h-232l-98 174l-148 -174h-231z" />
<glyph unicode="&#xf5;" horiz-adv-x="1296" d="M137 551q37 253 221.5 407t450.5 154q174 0 298 -69.5t179.5 -197t31.5 -294.5q-36 -252 -221.5 -407.5t-449.5 -155.5q-265 0 -405.5 155.5t-104.5 407.5zM454 547q-20 -135 43.5 -219t186.5 -84q122 0 210.5 84t107.5 219t-44.5 219t-185.5 84q-123 0 -210.5 -84 t-107.5 -219zM481 1274q45 309 249 309q51 0 94 -25.5t75 -51t56 -25.5q66 0 80 90h195q-45 -305 -249 -305q-42 0 -78.5 15.5t-57.5 34.5t-45 34.5t-44 15.5q-67 0 -81 -92h-194z" />
<glyph unicode="&#xf6;" horiz-adv-x="1296" d="M137 551q37 253 221.5 407t450.5 154q174 0 298 -69.5t179.5 -197t31.5 -294.5q-36 -252 -221.5 -407.5t-449.5 -155.5q-265 0 -405.5 155.5t-104.5 407.5zM454 547q-20 -135 43.5 -219t186.5 -84q122 0 210.5 84t107.5 219t-44.5 219t-185.5 84q-123 0 -210.5 -84 t-107.5 -219zM514 1421q10 67 57.5 110.5t112.5 43.5t101 -43.5t26 -110.5q-10 -66 -58 -108.5t-113 -42.5t-100.5 42.5t-25.5 108.5zM899 1421q10 67 57.5 110.5t112.5 43.5t101 -43.5t26 -110.5q-10 -66 -58 -108.5t-113 -42.5t-100.5 42.5t-25.5 108.5z" />
<glyph unicode="&#xf7;" horiz-adv-x="1036" d="M149 563l30 209h901l-30 -209h-901zM399 313q10 67 58.5 110.5t113.5 43.5t100 -43.5t25 -110.5q-10 -66 -57.5 -109.5t-111.5 -43.5q-65 0 -101.5 43.5t-26.5 109.5zM505 1044q10 67 58 110.5t113 43.5t100.5 -43.5t25.5 -110.5q-10 -66 -58 -109.5t-112 -43.5 q-65 0 -101 43.5t-26 109.5z" />
<glyph unicode="&#xf8;" horiz-adv-x="1296" d="M137 551q37 253 221.5 407t450.5 154q66 0 114 -8l124 266h131l-139 -297q158 -59 232 -195.5t47 -326.5q-36 -252 -221.5 -407.5t-449.5 -155.5q-66 0 -111 8l-136 -289h-133l151 320q-159 59 -234 197t-47 327zM433 547q-14 -95 11 -169t83 -116l287 612q-18 3 -38 3 q-131 0 -226 -91t-117 -239zM640 219q12 -2 40 -2q131 0 225.5 91.5t115.5 238.5q14 97 -11 170.5t-83 113.5z" />
<glyph unicode="&#xf9;" horiz-adv-x="1351" d="M178 410l100 692h315l-87 -602q-15 -104 32 -164t143 -60q112 1 189 80t95 201l79 545h313l-159 -1102h-313l28 195q-143 -207 -399 -207q-183 0 -273.5 113.5t-62.5 308.5zM528 1458l308 109l171 -334h-252z" />
<glyph unicode="&#xfa;" horiz-adv-x="1351" d="M178 410l100 692h315l-87 -602q-15 -104 32 -164t143 -60q112 1 189 80t95 201l79 545h313l-159 -1102h-313l28 195q-143 -207 -399 -207q-183 0 -273.5 113.5t-62.5 308.5zM679 1233l266 334l277 -111l-293 -223h-250z" />
<glyph unicode="&#xfb;" horiz-adv-x="1351" d="M178 410l100 692h315l-87 -602q-15 -104 32 -164t143 -60q112 1 189 80t95 201l79 545h313l-159 -1102h-313l28 195q-143 -207 -399 -207q-183 0 -273.5 113.5t-62.5 308.5zM491 1249l267 303h262l180 -303h-231l-98 174l-148 -174h-232z" />
<glyph unicode="&#xfc;" horiz-adv-x="1351" d="M178 410l100 692h315l-87 -602q-15 -104 32 -164t143 -60q112 1 189 80t95 201l79 545h313l-159 -1102h-313l28 195q-143 -207 -399 -207q-183 0 -273.5 113.5t-62.5 308.5zM530 1421q10 67 57.5 110.5t112.5 43.5t101 -43.5t26 -110.5q-10 -66 -58 -108.5t-113 -42.5 t-100.5 42.5t-25.5 108.5zM915 1421q10 67 57.5 110.5t112.5 43.5t101 -43.5t26 -110.5q-10 -66 -58 -108.5t-113 -42.5t-100.5 42.5t-25.5 108.5z" />
<glyph unicode="&#xfd;" horiz-adv-x="1155" d="M-60 -305l166 227q62 -59 134 -59q101 0 160 98l39 62l-301 1079h326l180 -758l369 758h315l-660 -1225q-157 -289 -445 -289q-169 0 -283 107zM593 1233l266 334l277 -111l-293 -223h-250z" />
<glyph unicode="&#xfe;" horiz-adv-x="1400" d="M105 -397l276 1917h315l-83 -580q146 172 373 172q232 0 352.5 -156t83.5 -411q-36 -251 -198.5 -404t-393.5 -153t-330 172l-80 -557h-315zM557 555q-19 -136 45 -220.5t186 -84.5q121 0 208.5 85t107.5 220q19 133 -44.5 218t-184.5 85t-209.5 -84.5t-108.5 -218.5z " />
<glyph unicode="&#xff;" horiz-adv-x="1155" d="M-60 -305l166 227q62 -59 134 -59q101 0 160 98l39 62l-301 1079h326l180 -758l369 758h315l-660 -1225q-157 -289 -445 -289q-169 0 -283 107zM444 1421q10 67 57.5 110.5t112.5 43.5t101 -43.5t26 -110.5q-10 -66 -58 -108.5t-113 -42.5t-100.5 42.5t-25.5 108.5z M829 1421q10 67 57.5 110.5t112.5 43.5t101 -43.5t26 -110.5q-10 -66 -58 -108.5t-113 -42.5t-100.5 42.5t-25.5 108.5z" />
<glyph unicode="&#x152;" horiz-adv-x="2269" d="M159 717q29 200 152.5 364.5t313 258.5t405.5 94h1327l-39 -269h-768l-45 -311h691l-39 -268h-690l-46 -316h791l-39 -270h-1350q-160 0 -294.5 55t-223 149.5t-128.5 228t-18 284.5zM490 715q-27 -189 81 -315t294 -126l234 2l126 879h-233q-187 0 -331 -126t-171 -314z " />
<glyph unicode="&#x153;" horiz-adv-x="2101" d="M137 551q37 253 221.5 407t450.5 154q140 0 241 -53t156 -150q79 97 190.5 150t244.5 53q269 0 397 -173t75 -460h-821q4 -116 73 -181t184 -65q163 0 300 117l141 -168q-205 -194 -503 -194q-140 0 -238 52.5t-148 149.5q-82 -97 -198.5 -149.5t-255.5 -52.5 q-265 0 -405.5 155.5t-104.5 407.5zM454 547q-20 -135 43.5 -219t186.5 -84q122 0 210.5 84t107.5 219t-44.5 219t-185.5 84q-123 0 -210.5 -84t-107.5 -219zM1313 639h510q14 109 -44.5 179.5t-165.5 70.5q-104 0 -184.5 -69t-115.5 -181z" />
<glyph unicode="&#x178;" horiz-adv-x="1363" d="M200 1434h326l274 -643l451 643h326l-662 -971l-67 -463h-324l66 455zM595 1755q10 67 57.5 110.5t112.5 43.5t101 -43.5t26 -110.5q-10 -66 -58 -108.5t-113 -42.5t-100.5 42.5t-25.5 108.5zM980 1755q10 67 57.5 110.5t112.5 43.5t101 -43.5t26 -110.5 q-10 -66 -58 -108.5t-113 -42.5t-100.5 42.5t-25.5 108.5z" />
<glyph unicode="&#x2c6;" horiz-adv-x="716" d="M185 1253l267 303h262l179 -303h-231l-98 174l-148 -174h-231z" />
<glyph unicode="&#x2dc;" horiz-adv-x="716" d="M190 1274q45 309 249 309q51 0 94 -25.5t75 -51t56 -25.5q67 0 81 90h194q-45 -305 -249 -305q-42 0 -78.5 15.5t-57.5 34.5t-45 34.5t-44 15.5q-67 0 -81 -92h-194z" />
<glyph unicode="&#x2000;" horiz-adv-x="958" />
<glyph unicode="&#x2001;" horiz-adv-x="1917" />
<glyph unicode="&#x2002;" horiz-adv-x="958" />
<glyph unicode="&#x2003;" horiz-adv-x="1917" />
<glyph unicode="&#x2004;" horiz-adv-x="639" />
<glyph unicode="&#x2005;" horiz-adv-x="479" />
<glyph unicode="&#x2006;" horiz-adv-x="319" />
<glyph unicode="&#x2007;" horiz-adv-x="319" />
<glyph unicode="&#x2008;" horiz-adv-x="239" />
<glyph unicode="&#x2009;" horiz-adv-x="383" />
<glyph unicode="&#x200a;" horiz-adv-x="106" />
<glyph unicode="&#x2010;" horiz-adv-x="761" d="M192 522l30 209h528l-30 -209h-528z" />
<glyph unicode="&#x2011;" horiz-adv-x="761" d="M192 522l30 209h528l-30 -209h-528z" />
<glyph unicode="&#x2012;" horiz-adv-x="761" d="M192 522l30 209h528l-30 -209h-528z" />
<glyph unicode="&#x2013;" horiz-adv-x="833" d="M65 449l30 208h833l-30 -208h-833z" />
<glyph unicode="&#x2014;" horiz-adv-x="1355" d="M65 449l30 208h1356l-31 -208h-1355z" />
<glyph unicode="&#x2018;" horiz-adv-x="475" d="M221 1106q9 66 61 129l167 207h154l-116 -209q54 -43 43 -125q-10 -70 -60 -115t-118 -45q-64 0 -102.5 43t-28.5 115z" />
<glyph unicode="&#x2019;" horiz-adv-x="475" d="M197 942l116 207q-56 45 -45 127q10 69 61.5 114.5t119.5 45.5q64 0 102.5 -43t27.5 -117q-10 -68 -61 -127l-167 -207h-154z" />
<glyph unicode="&#x201a;" horiz-adv-x="475" d="M34 -188l116 206q-56 45 -45 127q10 70 61.5 115t119.5 45q64 0 102.5 -43t27.5 -117q-10 -68 -61 -127l-167 -206h-154z" />
<glyph unicode="&#x201c;" horiz-adv-x="741" d="M221 1108q10 68 61 127l167 207h154l-116 -207q56 -45 45 -127q-10 -70 -61 -115t-119 -45q-65 0 -103.5 43t-27.5 117zM575 1108q9 66 62 127l167 207h153l-115 -207q56 -45 45 -127q-10 -70 -61.5 -115t-119.5 -45q-65 0 -103.5 43t-27.5 117z" />
<glyph unicode="&#x201d;" horiz-adv-x="790" d="M197 942l116 207q-56 45 -45 127q10 70 61.5 115t119.5 45q64 0 102.5 -43t27.5 -117q-10 -68 -61 -127l-167 -207h-154zM552 942l115 207q-56 45 -45 127q10 70 61.5 115t119.5 45q64 0 102.5 -43t27.5 -117q-10 -68 -61 -127l-167 -207h-153z" />
<glyph unicode="&#x201e;" horiz-adv-x="829" d="M34 -188l116 206q-56 45 -45 127q10 70 61.5 115t119.5 45q64 0 102.5 -43t27.5 -117q-10 -68 -61 -127l-167 -206h-154zM389 -188l115 206q-56 45 -45 127q10 70 61.5 115t119.5 45q65 0 103.5 -43t27.5 -117q-9 -66 -62 -127l-167 -206h-153z" />
<glyph unicode="&#x2022;" horiz-adv-x="638" d="M163 561q15 106 91 174t179 68q104 0 161 -68t42 -174q-16 -107 -92.5 -176.5t-180.5 -69.5q-103 0 -159.5 69.5t-40.5 176.5z" />
<glyph unicode="&#x2026;" horiz-adv-x="1343" d="M102 141q10 69 60.5 113.5t116.5 44.5t103 -44.5t27 -113.5t-60 -113t-116 -44t-103.5 44t-27.5 113zM539 141q10 69 60 113.5t116 44.5t103.5 -44.5t27.5 -113.5t-60.5 -113t-116.5 -44t-103 44t-27 113zM975 141q10 69 59.5 113.5t116.5 44.5q66 0 102.5 -44.5 t26.5 -113.5t-59 -113t-115 -44q-67 0 -104 44t-27 113z" />
<glyph unicode="&#x202f;" horiz-adv-x="383" />
<glyph unicode="&#x2039;" horiz-adv-x="571" d="M97 543l297 370h258l-273 -370l166 -373h-258z" />
<glyph unicode="&#x203a;" horiz-adv-x="587" d="M123 170l273 373l-166 370h258l190 -370l-297 -373h-258z" />
<glyph unicode="&#x205f;" horiz-adv-x="479" />
<glyph unicode="&#x20ac;" horiz-adv-x="1605" d="M134 489l22 152h182q2 42 7 78q2 16 17 88h-182l22 151h217q108 219 323 352.5t472 133.5q156 0 298 -64.5t233 -173.5l-222 -229q-62 86 -155 136t-193 50q-117 0 -223 -55t-177 -150h473l-22 -151h-530q-13 -36 -20 -84q-6 -44 -6 -82h532l-21 -152h-476 q43 -96 133.5 -152t209.5 -56q96 0 202.5 45.5t196.5 122.5l159 -207q-130 -118 -295 -187t-322 -69q-255 0 -429 139t-213 364h-213z" />
<glyph unicode="&#x2122;" horiz-adv-x="1839" d="M165 1243l27 191h701l-28 -191h-237l-97 -670h-229l96 670h-233zM865 573l124 861h256l157 -490l298 490h256l-124 -861h-207l76 529l-262 -443h-156l-133 443l-76 -529h-209z" />
<glyph unicode="&#x25fc;" horiz-adv-x="1105" d="M0 0v1106h1106v-1106h-1106z" />
</font>
</defs>
</svg>
